<svg xmlns="http://www.w3.org/2000/svg" xml:space="preserve" width="2.68021in" height="2.2968in" version="1.1" style="shape-rendering:geometricPrecision; text-rendering:geometricPrecision; image-rendering:optimizeQuality; fill-rule:evenodd; clip-rule:evenodd"
viewBox="0 0 2513.95 2154.32"
 xmlns:xlink="http://www.w3.org/1999/xlink">
 <defs>
  <style type="text/css">
   <![CDATA[
    .str0 {stroke:#AFFEF8;stroke-width:2.81;stroke-miterlimit:2.61313}
    .fil0 {fill:#AFFEF8}
   ]]>
  </style>
 </defs>
 <g id="Layer_x0020_1">
  <metadata id="CorelCorpID_0Corel-Layer"/>
  <g id="_3145641465600">
   <path class="fil0" d="M1016 1278.13c-69.61,0 -111.67,-11.37 -117.23,-78.15 0.03,0 204.48,125.67 221.44,-78.15l39.08 0c-1.95,87.77 -58.11,156.31 -143.28,156.31zm13.03 -286.57c-23.33,87.36 -144.71,39.85 -195.39,13.03 -11.92,51.16 -17.83,31.17 -24.48,92.76 -7.31,67.69 19.04,60.64 -40.65,76.58 0,-221.14 43.72,-137.25 33.83,-216.18 -3.21,-25.59 -20.81,-47.8 -20.81,-70.39 0,-33.76 8.72,-13.38 13.03,-65.13l39.08 0c-1.63,73.1 -23.42,97.59 32.65,149.81 51,47.5 88.02,19.53 162.74,19.53zm-299.59 -508c0,106.39 82.12,69.24 104.21,130.26 -66.88,30.93 10.92,0 -104.21,0 -41.48,0 -91.18,66.37 -91.18,117.23 0,56.48 20.72,40.21 26.05,104.2 -64.92,-17.33 -65.13,-57.4 -65.13,-117.23 0,-87.46 59.25,-112.6 117.23,-143.28 -34.81,-65.79 -49.6,-158.68 39.08,-182.36 -4.78,57.44 -26.05,56.99 -26.05,91.18zm117.23 -247.49c66.38,17.73 22.2,15.84 52.1,78.15 111.51,-59 202.96,-7.54 200.31,42.85 -3.89,73.91 -42.99,-29.83 -109.13,-29.83 -74.24,0 -91.18,40.73 -91.18,104.2 0,57.03 45.16,20.81 52.11,104.21 -129.56,-30.18 -66.77,-134.18 -94.42,-218.38 -35.92,-109.36 -5.41,-47.15 -9.78,-81.22zm208.41 0l-39.08 0c1.72,-77.15 64.88,-137.15 93.09,-137.05 51.94,0.19 8.04,28.27 -9.53,48.98 -27.07,31.92 -40.65,41.94 -44.49,88.06zm-26.05 -195.39c-173.97,0 -169.98,97.16 -202.25,136.41 -25.27,30.74 -31.98,17.64 -72.57,31.64 -90.78,31.31 -168.05,125.93 -168.05,248.77 0,44.9 9.63,50.44 13.02,91.18 -193.93,129.86 -83.82,384 39.08,416.82 -15.58,66.88 -27.35,117.24 28.9,192.53l92.32 77.01c47.39,21.69 14.36,-8.53 48.6,29.55 21.87,24.32 48.02,97.34 129.26,131.33 82.78,34.65 193.32,21.59 245.11,-42.54 49.94,-61.85 28.93,-219.63 28.93,-322.76 -177.49,-41.35 -143.28,-182.81 -143.28,-390.77 -77.02,-17.94 -83.58,-11.49 -117.23,52.11 -2.53,19.53 154.56,193.38 -26.05,208.41 7.23,-66.06 12.12,-18.44 52.1,-78.15 -35.2,-131.81 -156.36,-77.89 -169.33,-91.18 -5.41,-12.22 -37.2,-8.87 17.82,-32.4 25.89,-11.07 56.15,-6.68 86.39,-6.68 67.63,-140.96 87.27,-103.34 195.39,-78.15 0,176.26 -38.11,352.87 104.2,364.72 0,-129.37 -32.09,-98.38 -39.08,-182.36 70.98,-25.69 40.45,-198.73 26.05,-260.51 -99.88,0 -126.64,11.66 -169.33,-52.11 57.91,-26.78 38.28,13.03 91.18,13.03 78.73,0 91.18,-41.58 91.18,-91.18 0,-65.19 -25.46,-54.82 -52.1,-91.18 42.7,-58.28 52.1,4.24 52.1,-104.2 0,-57.85 -16.7,2.86 -20.57,-54.33 -0,-0.04 72.04,-206.44 -51.63,-136.87 -96.14,54.08 -18.18,21.86 -110.16,21.86z"/>
   <path class="fil0 str0" d="M1328.61 1121.83l39.08 0c1.63,73.01 31.36,117.23 104.21,117.23 65.23,0 93.93,-66.72 107.56,-23.72 20.24,63.87 -250.84,135.56 -250.84,-93.51zm312.62 -299.59c109.55,9.12 16.67,114.44 42.4,178.01 20.26,50.06 77.59,152.08 -3.32,173.68 0,-90.84 -7.84,-110.29 -39.08,-169.33 -56.79,38.03 -158.94,74.65 -182.36,-13.03 18.75,0.42 195.39,46.99 195.39,-104.2 0,-16.64 -8.44,-54.87 -13.03,-65.13zm78.15 -429.85c92.55,7.7 67.87,114.67 52.11,182.36 89.83,47.53 148.36,133.04 96.5,226.76 -19.15,34.62 -13.08,30.06 -57.43,33.75 5.69,-68.38 48.41,-61.83 29.31,-132.61 -34.68,-128.54 -140.17,-79.58 -185.62,-75.8l0 -39.08c154.99,-36.11 69.66,-160.06 65.13,-195.39zm-104.2 -52.1c0,61.08 24.04,83.96 -5.31,137.58 -10.91,19.93 -80.05,99.8 -79.04,34.26 0.66,-42.6 62.52,-21.18 54.99,-105.14 -3.3,-36.81 -43.34,-79.72 -87.87,-79.72 -78.01,0 -94.44,78.72 -110.17,34.12 -12.09,-34.25 44.14,-73.2 110.17,-73.2 47.32,0 45.69,15.45 91.18,26.05 7.15,-30.66 12.14,-38.47 13.02,-78.15l39.08 0c0,70.31 -26.05,94.47 -26.05,104.21zm-260.51 -247.49c43.94,10.24 54.63,22.19 77.31,52.95 28.25,38.3 27.43,36.71 39.92,90.33 -55.99,-4.66 -20.12,6.4 -45.25,-19.87 -7.6,-7.94 -66.26,-78.79 -71.98,-123.41zm-91.18 -26.05c0,30.73 25.55,57.95 39.08,78.15 -22.66,33.84 -78.26,118.91 13.02,143.28 -8.85,106.32 -39.08,-9.55 -39.08,143.28 0,115.42 164.85,39.45 169.33,39.08 -10.96,131.78 -169.33,7.24 -169.33,104.21l0 182.36c0,50.76 26.05,8.55 26.05,78.15 0,51.35 -9.59,1.27 -22.2,55.96 -6.43,27.89 -3.85,58.23 -3.85,87.33 154.42,-12.85 54.63,-247.28 117.23,-377.75 76.19,-18.24 160.32,-17.13 169.33,91.18 57.9,0 75.99,-6.76 117.23,13.02 -14.46,54.14 -25.93,26.05 -117.23,26.05 -32.09,60.64 -52.1,57.83 -52.1,91.18 0,63 32.14,3.39 52.1,78.15 -98.06,-2.19 -91.18,-51.36 -91.18,-104.21 0,-57.75 52.1,-27.16 52.1,-104.2 0,-26.36 -116.6,-187.9 -117.56,116.9 -0.33,106.53 5.17,153.2 -76.12,197.42 -72.75,39.58 -53.81,-18.77 -53.81,297.89 0,64.35 109.61,111.53 170.93,112.81 108.43,2.27 168.83,-60.34 212.76,-132.91 29.32,-48.43 -14.02,-11.38 38.34,-39.81 106.84,-58 151.1,-56.37 151.1,-278.75 123.17,-65.18 185.53,-195.54 106.76,-341.23 -56,-103.58 -76.59,-33.81 -69.14,-140.64 1.76,-25.27 3.29,-51.57 0.41,-76.85 -9.38,-82.33 -59.73,-145.52 -129.23,-183.73 -138.04,-75.9 -35.4,40.42 -134.24,-100.22 -94.63,-134.64 -183.15,-55.21 -245.88,-79.62 -33.26,-12.94 -37.51,-29.66 -88.79,-41.61 -8.7,16.45 -26.05,43.07 -26.05,65.13z"/>
   <path class="fil0" d="M807.59 1616.8c0,63.01 41.2,104.21 104.21,104.21l690.36 0c94.67,0 140.55,-208.41 -65.13,-208.41l-586.16 0c-77.53,0 -143.28,25.09 -143.28,104.2z"/>
   <path class="fil0" d="M924.82 1838.24c0,220.15 -21.81,169.33 573.13,169.33 70.6,0 52.1,-91.14 52.1,-182.36 0,-30.01 -9.07,-39.08 -39.08,-39.08l-534.05 0c-30.49,0 -52.1,21.61 -52.1,52.11z"/>
   <path class="fil0 str0" d="M1081.13 2072.7c0,100.22 122.8,78.15 234.46,78.15 98.35,0 124.36,-117.23 52.1,-117.23 -175.56,0 -286.56,-26.13 -286.56,39.08z"/>
   <path class="fil0" d="M-0 796.18c0,72.4 234.13,52.11 299.59,52.11 39.58,0 44.22,-22.6 52.11,-52.11 -45.54,-68 -80.74,-29.89 -180.46,-41.01 -50.65,-5.65 -171.23,-42.02 -171.23,41.01z"/>
   <path class="fil0" d="M2162.26 783.16l14.62 51.6c120.89,0.69 337.07,54.55 337.07,-38.57 0,-64.52 -108.2,-32.84 -178.83,-42.68 -68.47,-9.54 -130.98,-30.61 -172.86,29.66z"/>
   <path class="fil0" d="M2201.33 1317.21c107.11,0 -22.75,-143.28 -117.23,-143.28 -55.03,0 -74.16,53.57 -14.18,91.5 22.49,14.22 97.18,51.78 131.41,51.78z"/>
   <path class="fil0 str0" d="M273.54 1278.13c0,81.08 113.14,16.79 144.11,0.83 45.2,-23.3 51.4,-23.62 64.29,-78.98 -10.49,-7.29 -32.16,-26.05 -39.08,-26.05 -44.75,0 -169.33,57.4 -169.33,104.21z"/>
   <path class="fil0" d="M2084.1 353.31c0,123.65 175.58,-16.52 181.96,-67.72 14.07,-112.88 -123.37,-4.67 -156.29,28.26 -18.09,18.1 -25.67,-0.34 -25.67,39.46z"/>
   <path class="fil0" d="M390.77 405.42c113.66,0 -45.83,-169.34 -104.21,-169.34 -132.96,0 51.63,169.34 104.21,169.34z"/>
  </g>
 </g>
</svg>
